<?xml version="1.0" standalone="no"?><!DOCTYPE svg PUBLIC "-//W3C//DTD SVG 1.1//EN" "http://www.w3.org/Graphics/SVG/1.1/DTD/svg11.dtd"><svg t="1631497411790" class="icon" viewBox="0 0 1024 1024" version="1.1" xmlns="http://www.w3.org/2000/svg" p-id="2186" xmlns:xlink="http://www.w3.org/1999/xlink" width="200" height="200"><defs><style type="text/css"></style></defs><path d="M512 53c-32 0-63.333 4.167-94 12.5s-59 20.167-85 35.5-49.833 33.833-71.5 55.5-40 45.333-55 71S179.667 281.333 171 312s-13 61.667-13 93c0 89.333 30 168 90 236l230 289c4 5.333 9 9.5 15 12.5s11.833 4.5 17.5 4.5 11.5-1.5 17.5-4.5 11-7.167 15-12.5l229-289c29.333-32.667 52.167-68.833 68.5-108.5S865 450.333 865 405c0-24-2.333-47.5-7-70.5s-11.5-45-20.5-66-20-41-33-60-27.333-36.333-43-52-33-30-52-43-39-23.833-60-32.5S606.333 65.5 583 60.5 536 53 512 53zM512 582c-24 0-47-4.667-69-14s-40.833-21.833-56.5-37.5S358.333 496 349 474s-14-45-14-69c0-48.667 17.167-90.167 51.5-124.5S462.667 229 512 229c24 0 46.833 4.667 68.5 14s40.5 21.833 56.5 37.5 28.667 34.5 38 56.5 14 44.667 14 68c0 19.333-3 38-9 56s-14.5 34.167-25.5 48.5-23.667 27-38 38S586 567 568 573 531.333 582 512 582z" p-id="2187"></path></svg>