<?xml version="1.0" standalone="no"?><!DOCTYPE svg PUBLIC "-//W3C//DTD SVG 1.1//EN" "http://www.w3.org/Graphics/SVG/1.1/DTD/svg11.dtd"><svg t="1631862311318" class="icon" viewBox="0 0 1024 1024" version="1.1" xmlns="http://www.w3.org/2000/svg" p-id="3414" xmlns:xlink="http://www.w3.org/1999/xlink" width="200" height="200"><defs><style type="text/css"></style></defs><path d="M835.720533 422.434133l39.5264 73.386667A102.4 102.4 0 0 1 887.466667 544.426667V750.933333a68.266667 68.266667 0 0 1-68.266667 68.266667h-102.4a68.266667 68.266667 0 0 1-68.266667-68.266667h-273.066666a68.266667 68.266667 0 0 1-68.266667 68.266667H204.8a68.266667 68.266667 0 0 1-68.266667-68.266667v-206.5408a102.4 102.4 0 0 1 12.219734-48.5376l39.5264-73.4208-63.419734-31.709866 30.549334-61.064534 65.2288 32.631467 65.467733-121.582933A68.266667 68.266667 0 0 1 346.180267 204.8h331.605333a68.266667 68.266667 0 0 1 60.1088 35.908267l65.467733 121.582933 65.2288-32.631467 30.549334 61.098667-63.419734 31.675733zM769.706667 443.733333H254.293333L208.896 528.213333a34.133333 34.133333 0 0 0-4.061867 16.1792V750.933333h102.4v-68.266666h409.6v68.266666h102.4v-206.5408a34.133333 34.133333 0 0 0-4.096-16.1792L769.706667 443.733333zM291.089067 375.466667h441.821866l-55.125333-102.4h-331.5712l-55.125333 102.4zM307.2 546.133333h136.533333v68.266667H307.2v-68.266667z m273.066667 0h136.533333v68.266667h-136.533333v-68.266667z" p-id="3415"></path></svg>