<?xml version="1.0" standalone="no"?><!DOCTYPE svg PUBLIC "-//W3C//DTD SVG 1.1//EN" "http://www.w3.org/Graphics/SVG/1.1/DTD/svg11.dtd"><svg t="1631862251489" class="icon" viewBox="0 0 1024 1024" version="1.1" xmlns="http://www.w3.org/2000/svg" p-id="1504" xmlns:xlink="http://www.w3.org/1999/xlink" width="200" height="200"><defs><style type="text/css"></style></defs><path d="M566.1 261.4c44.8 0 82-37.2 82-81.9s-37.3-81.9-82-81.9c-44.8 0-82.1 37.2-82.1 81.9 0.1 44.7 37.4 81.9 82.1 81.9z m179.1 208.4l-100.7-37.2-63.4-115.4c-3.7-3.7-7.5-7.4-7.5-11.2l-7.5-7.4c-26.1-26.1-63.4-29.8-97-14.9l-175.3 59.6c-14.9 3.7-26.1 18.6-29.8 33.5l-14.9 137.7c-3.7 22.3 14.9 44.7 37.3 48.4h3.7c22.4 0 41-14.9 41-37.2l11.2-107.9 67.1-22.3c-11.2 26.1-22.4 52.1-29.8 70.7-14.9 33.5-14.9 78.2 3.7 115.4l-115.6 268c-11.2 26.1 0.3 58.8 26.1 70.7 29.5 13.6 64.7-11.7 74.6-33.5l85.8-193.5c52.2 93.1 111.9 201 111.9 204.7 11.2 18.6 29.8 29.8 48.5 29.8 7.5 0 18.6-3.7 26.1-7.4 26.1-14.9 37.3-48.4 22.4-74.4-3.7-7.4-93.2-174.9-152.9-275.4l52.2-115.4 18.6 33.5c3.7 11.2 14.9 14.9 22.4 18.6L719 551.7c3.7 0 11.2 3.7 14.9 3.7 18.6 0 33.6-11.2 41-29.8 3.8-22.3-7.4-48.3-29.7-55.8z" p-id="1505"></path></svg>