<?xml version="1.0" standalone="no"?><!DOCTYPE svg PUBLIC "-//W3C//DTD SVG 1.1//EN" "http://www.w3.org/Graphics/SVG/1.1/DTD/svg11.dtd"><svg t="1631949874259" class="icon" viewBox="0 0 1024 1024" version="1.1" xmlns="http://www.w3.org/2000/svg" p-id="2650" xmlns:xlink="http://www.w3.org/1999/xlink" width="200" height="200"><defs><style type="text/css"></style></defs><path d="M857.758897 878.380138a18.891034 18.891034 0 0 1-12.923587-5.12l-183.296-171.008a309.742345 309.742345 0 0 1-174.609655 69.561379 306.599724 306.599724 0 0 1-224.114758-74.963862 306.599724 306.599724 0 0 1-105.330759-211.438345 306.493793 306.493793 0 0 1 74.857931-224.008827 306.705655 306.705655 0 0 1 211.473655-105.43669 306.317241 306.317241 0 0 1 223.973517 74.963862 306.493793 306.493793 0 0 1 105.507311 211.438345 306.246621 306.246621 0 0 1-16.384 122.985931 19.067586 19.067586 0 0 1-36.051862-12.535172 268.076138 268.076138 0 0 0 14.300689-107.802483 268.676414 268.676414 0 0 0-92.336551-185.30869 268.782345 268.782345 0 0 0-196.360828-65.712552 269.135448 269.135448 0 0 0-185.37931 92.407173 268.535172 268.535172 0 0 0-65.641931 196.360827 268.570483 268.570483 0 0 0 92.371862 185.344 268.711724 268.711724 0 0 0 196.360827 65.712552 267.652414 267.652414 0 0 0 164.687449-71.115034 18.996966 18.996966 0 0 1 24.011034-1.553655 16.101517 16.101517 0 0 1 2.754207 2.153931l195.089655 182.060138a18.996966 18.996966 0 0 1-12.958896 33.015172z" fill="#666666" p-id="2651"></path></svg>